<?xml version="1.0" encoding="utf-8"?>
<!-- Generator: Adobe Illustrator 26.4.1, SVG Export Plug-In . SVG Version: 6.00 Build 0)  -->
<svg version="1.1" id="图层_1" xmlns="http://www.w3.org/2000/svg" xmlns:xlink="http://www.w3.org/1999/xlink" x="0px" y="0px"
	 viewBox="0 0 198.43 198.43" style="enable-background:new 0 0 198.43 198.43;" xml:space="preserve">
<style type="text/css">
	.st0{fill:#5A5858;}
</style>
<path class="st0" d="M24.5,116.67c-1.95,0-3.75-0.3-5.32-0.89c-1.61-0.6-2.93-1.52-3.92-2.74c-0.99-1.22-1.59-2.57-1.78-4.02
	c-0.18-1.38-0.27-3.75-0.27-7.05v-5.5c0-3.31,0.08-5.58,0.26-6.96c0.18-1.47,0.75-2.82,1.71-4.03c0.95-1.2,2.24-2.14,3.84-2.78
	c1.57-0.63,3.41-0.94,5.48-0.94c1.96,0,3.75,0.3,5.32,0.89c1.62,0.61,2.93,1.53,3.92,2.74c0.99,1.22,1.59,2.58,1.78,4.03
	c0.18,1.33,0.27,3.64,0.27,7.05v5.5c0,3.29-0.08,5.56-0.25,6.95c-0.19,1.48-0.76,2.83-1.71,4.04c-0.95,1.2-2.24,2.14-3.84,2.78
	C28.41,116.35,26.57,116.67,24.5,116.67z M24.5,83.15c-1.89,0-3.56,0.28-4.96,0.85c-1.39,0.55-2.46,1.32-3.27,2.35
	c-0.8,1-1.28,2.13-1.42,3.34c-0.16,1.3-0.25,3.58-0.25,6.79v5.5c0,3.25,0.09,5.56,0.25,6.87c0.16,1.19,0.66,2.31,1.48,3.33
	c0.84,1.04,1.93,1.79,3.33,2.32c1.42,0.53,3.05,0.8,4.83,0.8c1.89,0,3.56-0.28,4.96-0.85c1.37-0.55,2.47-1.34,3.27-2.35
	c0.8-1.02,1.27-2.11,1.42-3.35c0.16-1.31,0.24-3.59,0.24-6.78v-5.5c0-3.35-0.08-5.59-0.25-6.87c-0.15-1.19-0.65-2.31-1.48-3.33
	c-0.83-1.02-1.95-1.8-3.33-2.32C27.92,83.42,26.29,83.15,24.5,83.15z M24.48,111.22c-1.22,0-1.66-0.7-1.82-1.11
	c-0.13-0.34-0.3-1.09-0.3-3.7V91.4c0-2.41,0.26-3.06,0.53-3.42c0.26-0.35,0.76-0.78,1.65-0.78c1.13,0,1.58,0.65,1.75,1.04
	c0.15,0.35,0.33,1.02,0.33,3.15v14.78c0,2.64-0.17,3.44-0.3,3.82C26.05,110.79,25.4,111.22,24.48,111.22z M24.55,88.59
	c-0.33,0-0.46,0.12-0.54,0.23c-0.03,0.04-0.25,0.45-0.25,2.58v15.01c0,2.47,0.16,3.08,0.21,3.21c0.03,0.07,0.08,0.21,0.51,0.21
	c0.44,0,0.49-0.16,0.54-0.29c0.08-0.24,0.22-1.01,0.22-3.37V91.4c0-1.9-0.15-2.45-0.22-2.59C24.99,88.72,24.93,88.59,24.55,88.59z"
	/>
<path class="st0" d="M59.65,115.99H49.47V96.74c0-1.95-0.15-2.55-0.21-2.72c-0.03-0.07-0.08-0.2-0.47-0.2
	c-0.31,0-0.39,0.11-0.44,0.25c-0.09,0.2-0.23,0.78-0.23,2.42v19.51H37.94V82.43h10.18V89c0.48-0.29,0.99-0.53,1.51-0.73
	c0.94-0.34,1.97-0.52,3.06-0.52c1.67,0,3.11,0.4,4.3,1.19c1.23,0.82,1.99,1.79,2.27,2.88c0.25,1,0.38,2.73,0.38,5.28V115.99z
	 M50.86,114.6h7.39V97.11c0-2.4-0.11-4.07-0.34-4.94c-0.19-0.76-0.75-1.44-1.69-2.07c-0.96-0.63-2.15-0.96-3.54-0.96
	c-0.92,0-1.79,0.15-2.58,0.43c-0.8,0.29-1.55,0.73-2.23,1.31l-1.15,0.97v-8.04h-7.4v30.77h7.4V96.48c0-1.5,0.1-2.42,0.34-2.96
	c0.29-0.71,0.91-1.1,1.72-1.1c1.18,0,1.62,0.69,1.77,1.11c0.13,0.35,0.3,1.05,0.3,3.21V114.6z"/>
<path class="st0" d="M171.56,100.31c-0.28,1.74-1.53,9.54-2.12,13.34c-0.15,0.97-0.26,1.74-0.29,1.74h0.29h6.43l1.31-9.19
	c0.27-1.92,0.72-7.34,2.49-8.81c1.72-1.43,3.95-1.36,4.46-1.31l1.09-5.64C180.48,90.07,172.69,92.39,171.56,100.31z"/>
<path class="st0" d="M169.44,99.79c-0.28-1.26-0.76-2.47-1.43-3.62c-1.16-1.95-2.73-3.44-4.73-4.47c-1.99-1.02-4.28-1.54-6.83-1.54
	c-0.24,0-0.47,0-0.71,0.01c-3.94,0.15-7.34,1.55-10.17,4.19c-3,2.8-4.5,6.22-4.5,10.28c0,3.54,1.2,6.38,3.6,8.52
	c2.4,2.13,6.09,3.21,10.25,3.21c0.42,0,0.63-0.01,1.63-0.03v-0.01c2-0.13,3.76-0.58,5.56-1.34c2.18-0.92,3.77-2.18,5.09-3.77
	l-5.58-2.8c-1.6,1.27-4.07,2-5.07,2.22v0.01c-1,0.04-1.22,0.06-1.62,0.06c-2.07,0-3.93-0.85-5.11-1.87
	c-1.17-1.02-2.03-2.46-2.1-4.46h8.03h13.7h0.05c0.17,0,0.25-1.47,0.25-2.19C169.74,101.26,169.64,100.68,169.44,99.79z
	 M155.75,100.39h-7.1c0.69-1,1.7-2.53,3.01-3.35c1.22-0.75,2.59-1.1,4.09-1.16c0.12,0,0.24,0.02,0.36,0.02
	c1.65,0,3.06,0.31,4.24,1.1c1.16,0.78,2,2.39,2.51,3.39H155.75z"/>
<path class="st0" d="M132.56,100.44c-1.6-1.06-2.57-1.77-2.88-2.13c-0.33-0.36-0.5-0.73-0.5-1.09c0-0.38,0.21-0.73,0.62-1.03
	c0.42-0.31,0.92-0.46,1.53-0.46c0.79,0,1.63,0.27,2.53,0.8c0.9,0.52,1.76,1.35,2.58,2.46l3.18-4.67c-0.98-1.31-2.22-2.33-3.71-3.05
	c-1.49-0.72-3.06-1.08-4.72-1.08c-2.35,0-4.4,0.66-6.13,1.97c-1.73,1.31-2.59,3.02-2.59,5.11c0,1.49,0.55,2.92,1.65,4.26
	c0.79,0.96,2.22,2.11,4.29,3.46c1.79,1.16,2.89,1.97,3.29,2.42c0.4,0.45,0.6,0.89,0.6,1.32c0,0.53-0.27,0.99-0.79,1.38
	c-0.53,0.39-1.23,0.59-2.12,0.59c-2.23,0-4.27-1.13-6.15-3.39l-3.61,3.84l-0.52,0.55c0.18,0.17,0.35,0.34,0.52,0.5
	c1.64,1.52,3.13,2.59,4.48,3.19c1.5,0.67,3.16,1.01,4.98,1.01c3.16,0,5.57-0.82,7.23-2.47c1.67-1.65,2.5-3.4,2.5-5.25
	c0-1.41-0.41-2.71-1.22-3.91C136.8,103.56,135.12,102.12,132.56,100.44z"/>
<polygon class="st0" points="75.85,82.04 82.8,82.04 78.64,109.95 90.1,109.95 89.29,115.74 70.86,115.74 75.85,82.04 "/>
<path class="st0" d="M119.64,90.39h-6.17l-0.48,3.7c-0.92-1.34-2.09-2.26-3.5-2.97c-1.41-0.7-2.95-1-4.62-1
	c-0.11,0-0.23,0.03-0.34,0.03c-2.37,0.05-4.64,0.69-6.81,1.88c-2.29,1.24-4.1,2.99-5.46,5.21c-1.35,2.22-2.03,4.57-2.03,7.03
	c0,3.22,1.07,6.05,3.2,8.48c2.13,2.43,5,3.65,8.61,3.65c0.88,0,1.71-0.08,2.49-0.23c0.62-0.12,1.2-0.29,1.76-0.51
	c1.27-0.49,2.63-1.53,4.08-2.76l-0.38,2.51h6.62l3.04-21.32l0.52-3.68H119.64z M110.94,106.77c-0.82,1.43-1.85,2.49-3.07,3.16
	c-0.98,0.54-2.1,0.86-3.35,0.97c-0.3,0.03-0.61,0.04-0.93,0.04c-1.98,0-3.59-0.59-4.85-1.79c-1.25-1.19-1.88-2.76-1.88-4.72
	c0-2.53,0.83-4.61,2.48-6.21c1.46-1.4,3.18-2.2,5.18-2.37c0.28-0.02,0.57-0.04,0.86-0.04c2.05,0,3.69,0.6,4.93,1.8
	c1.25,1.2,1.87,2.78,1.87,4.75C112.18,103.86,111.77,105.33,110.94,106.77z"/>
<rect x="61.5" y="96.91" class="st0" width="9.87" height="4.6"/>
</svg>
